<svg width="240" height="240" version="1.1" xmlns="http://www.w3.org/2000/svg" desc="Created with imagetracer.js version 1.2.6" ><path fill="rgb(240,226,225)" stroke="rgb(240,226,225)" stroke-width="0" opacity="1" d="M 110.5 45 L 114 45.5 L 110.5 46 L 110.5 45 Z " /><path fill="rgb(240,226,225)" stroke="rgb(240,226,225)" stroke-width="0" opacity="1" d="M 126.5 45 L 130 45.5 L 126.5 46 L 126.5 45 Z " /><path fill="rgb(240,226,225)" stroke="rgb(240,226,225)" stroke-width="0" opacity="1" d="M 106.5 46 L 108 46.5 L 106.5 47 L 106.5 46 Z " /><path fill="rgb(240,226,225)" stroke="rgb(240,226,225)" stroke-width="0" opacity="1" d="M 132.5 46 L 134 46.5 L 132.5 47 L 132.5 46 Z " /><path fill="rgb(240,226,225)" stroke="rgb(240,226,225)" stroke-width="0" opacity="1" d="M 102.5 47 L 104 47.5 L 102.5 48 L 102.5 47 Z " /><path fill="rgb(240,226,225)" stroke="rgb(240,226,225)" stroke-width="0" opacity="1" d="M 136.5 47 L 138 47.5 L 136.5 48 L 136.5 47 Z " /><path fill="rgb(240,226,225)" stroke="rgb(240,226,225)" stroke-width="0" opacity="1" d="M 100.5 48 L 100.5 49 L 100.5 48 Z " /><path fill="rgb(240,226,225)" stroke="rgb(240,226,225)" stroke-width="0" opacity="1" d="M 139.5 48 L 139.5 49 L 139.5 48 Z " /><path fill="rgb(240,226,225)" stroke="rgb(240,226,225)" stroke-width="0" opacity="1" d="M 97.5 49 L 97.5 50 L 97.5 49 Z " /><path fill="rgb(240,226,225)" stroke="rgb(240,226,225)" stroke-width="0" opacity="1" d="M 142.5 49 L 142.5 50 L 142.5 49 Z " /><path fill="rgb(240,226,225)" stroke="rgb(240,226,225)" stroke-width="0" opacity="1" d="M 95.5 50 L 95.5 51 L 95.5 50 Z " /><path fill="rgb(240,226,225)" stroke="rgb(240,226,225)" stroke-width="0" opacity="1" d="M 144.5 50 L 144.5 51 L 144.5 50 Z " /><path fill="rgb(240,226,225)" stroke="rgb(240,226,225)" stroke-width="0" opacity="1" d="M 93.5 51 Q 95 52 92.5 53 Q 91 52 93.5 51 Z " /><path fill="rgb(240,226,225)" stroke="rgb(240,226,225)" stroke-width="0" opacity="1" d="M 146.5 51 L 146.5 52 L 146.5 51 Z " /><path fill="rgb(240,226,225)" stroke="rgb(240,226,225)" stroke-width="0" opacity="1" d="M 90.5 53 L 90.5 54 L 90.5 53 Z " /><path fill="rgb(240,226,225)" stroke="rgb(240,226,225)" stroke-width="0" opacity="1" d="M 149.5 53 L 149.5 54 L 149.5 53 Z " /><path fill="rgb(240,226,225)" stroke="rgb(240,226,225)" stroke-width="0" opacity="1" d="M 88.5 54 L 89 54.5 L 86.5 57 L 86 56.5 L 88.5 54 Z " /><path fill="rgb(240,226,225)" stroke="rgb(240,226,225)" stroke-width="0" opacity="1" d="M 151.5 54 L 154 56.5 L 153.5 57 L 151 54.5 L 151.5 54 Z " /><path fill="rgb(240,226,225)" stroke="rgb(240,226,225)" stroke-width="0" opacity="1" d="M 84.5 57 L 85 57.5 L 77.5 65 L 77 64.5 L 84.5 57 Z " /><path fill="rgb(240,226,225)" stroke="rgb(240,226,225)" stroke-width="0" opacity="1" d="M 155.5 57 L 163 64.5 L 162.5 65 L 155 57.5 L 155.5 57 Z " /><path fill="rgb(240,226,225)" stroke="rgb(240,226,225)" stroke-width="0" opacity="1" d="M 76.5 66 L 77 66.5 L 74.5 69 L 74 68.5 L 76.5 66 Z " /><path fill="rgb(240,226,225)" stroke="rgb(240,226,225)" stroke-width="0" opacity="1" d="M 163.5 66 L 166 68.5 L 165.5 69 L 163 66.5 L 163.5 66 Z " /><path fill="rgb(240,226,225)" stroke="rgb(240,226,225)" stroke-width="0" opacity="1" d="M 73.5 70 L 73.5 71 L 73.5 70 Z " /><path fill="rgb(240,226,225)" stroke="rgb(240,226,225)" stroke-width="0" opacity="1" d="M 166.5 70 L 166.5 71 L 166.5 70 Z " /><path fill="rgb(240,226,225)" stroke="rgb(240,226,225)" stroke-width="0" opacity="1" d="M 72.5 72 Q 74 73 71.5 74 Q 70 73 72.5 72 Z " /><path fill="rgb(240,226,225)" stroke="rgb(240,226,225)" stroke-width="0" opacity="1" d="M 167.5 72 Q 170 73 168.5 74 Q 166 73 167.5 72 Z " /><path fill="rgb(240,226,225)" stroke="rgb(240,226,225)" stroke-width="0" opacity="1" d="M 70.5 75 L 70.5 76 L 70.5 75 Z " /><path fill="rgb(240,226,225)" stroke="rgb(240,226,225)" stroke-width="0" opacity="1" d="M 169.5 75 L 169.5 76 L 169.5 75 Z " /><path fill="rgb(240,226,225)" stroke="rgb(240,226,225)" stroke-width="0" opacity="1" d="M 69.5 77 L 69.5 78 L 69.5 77 Z " /><path fill="rgb(240,226,225)" stroke="rgb(240,226,225)" stroke-width="0" opacity="1" d="M 170.5 77 L 170.5 78 L 170.5 77 Z " /><path fill="rgb(240,226,225)" stroke="rgb(240,226,225)" stroke-width="0" opacity="1" d="M 68.5 80 L 68.5 81 L 68.5 80 Z " /><path fill="rgb(240,226,225)" stroke="rgb(240,226,225)" stroke-width="0" opacity="1" d="M 171.5 80 L 171.5 81 L 171.5 80 Z " /><path fill="rgb(240,226,225)" stroke="rgb(240,226,225)" stroke-width="0" opacity="1" d="M 67.5 82 L 68 83.5 L 67 83.5 L 67.5 82 Z " /><path fill="rgb(240,226,225)" stroke="rgb(240,226,225)" stroke-width="0" opacity="1" d="M 172.5 82 L 173 83.5 L 172 83.5 L 172.5 82 Z " /><path fill="rgb(240,226,225)" stroke="rgb(240,226,225)" stroke-width="0" opacity="1" d="M 66.5 86 L 67 87.5 L 66 87.5 L 66.5 86 Z " /><path fill="rgb(240,226,225)" stroke="rgb(240,226,225)" stroke-width="0" opacity="1" d="M 173.5 86 L 174 87.5 L 173 87.5 L 173.5 86 Z " /><path fill="rgb(240,226,225)" stroke="rgb(240,226,225)" stroke-width="0" opacity="1" d="M 65.5 90 L 66 93.5 L 65 93.5 L 65.5 90 Z " /><path fill="rgb(240,226,225)" stroke="rgb(240,226,225)" stroke-width="0" opacity="1" d="M 174.5 90 L 175 93.5 L 174 93.5 L 174.5 90 Z " /><path fill="rgb(240,226,225)" stroke="rgb(240,226,225)" stroke-width="0" opacity="1" d="M 65.5 106 L 66 109.5 L 65 109.5 L 65.5 106 Z " /><path fill="rgb(240,226,225)" stroke="rgb(240,226,225)" stroke-width="0" opacity="1" d="M 174.5 106 L 175 109.5 L 174 109.5 L 174.5 106 Z " /><path fill="rgb(240,226,225)" stroke="rgb(240,226,225)" stroke-width="0" opacity="1" d="M 66.5 112 L 67 113.5 L 66 113.5 L 66.5 112 Z " /><path fill="rgb(240,226,225)" stroke="rgb(240,226,225)" stroke-width="0" opacity="1" d="M 173.5 112 L 174 113.5 L 173 113.5 L 173.5 112 Z " /><path fill="rgb(240,226,225)" stroke="rgb(240,226,225)" stroke-width="0" opacity="1" d="M 67.5 116 L 68 117.5 L 67 117.5 L 67.5 116 Z " /><path fill="rgb(240,226,225)" stroke="rgb(240,226,225)" stroke-width="0" opacity="1" d="M 172.5 116 L 173 117.5 L 172 117.5 L 172.5 116 Z " /><path fill="rgb(240,226,225)" stroke="rgb(240,226,225)" stroke-width="0" opacity="1" d="M 68.5 119 L 68.5 120 L 68.5 119 Z " /><path fill="rgb(240,226,225)" stroke="rgb(240,226,225)" stroke-width="0" opacity="1" d="M 171.5 119 L 171.5 120 L 171.5 119 Z " /><path fill="rgb(240,226,225)" stroke="rgb(240,226,225)" stroke-width="0" opacity="1" d="M 69.5 122 L 69.5 123 L 69.5 122 Z " /><path fill="rgb(240,226,225)" stroke="rgb(240,226,225)" stroke-width="0" opacity="1" d="M 170.5 122 L 170.5 123 L 170.5 122 Z " /><path fill="rgb(240,226,225)" stroke="rgb(240,226,225)" stroke-width="0" opacity="1" d="M 70.5 124 L 70.5 125 L 70.5 124 Z " /><path fill="rgb(240,226,225)" stroke="rgb(240,226,225)" stroke-width="0" opacity="1" d="M 169.5 124 L 169.5 125 L 169.5 124 Z " /><path fill="rgb(240,226,225)" stroke="rgb(240,226,225)" stroke-width="0" opacity="1" d="M 71.5 126 Q 74 127 72.5 128 Q 70 127 71.5 126 Z " /><path fill="rgb(240,226,225)" stroke="rgb(240,226,225)" stroke-width="0" opacity="1" d="M 168.5 126 Q 170 127 167.5 128 Q 166 127 168.5 126 Z " /><path fill="rgb(240,226,225)" stroke="rgb(240,226,225)" stroke-width="0" opacity="1" d="M 73.5 129 L 73.5 130 L 73.5 129 Z " /><path fill="rgb(240,226,225)" stroke="rgb(240,226,225)" stroke-width="0" opacity="1" d="M 166.5 129 L 166.5 130 L 166.5 129 Z " /><path fill="rgb(240,226,225)" stroke="rgb(240,226,225)" stroke-width="0" opacity="1" d="M 74.5 131 L 77 133.5 L 76.5 134 L 74 131.5 L 74.5 131 Z " /><path fill="rgb(240,226,225)" stroke="rgb(240,226,225)" stroke-width="0" opacity="1" d="M 165.5 131 L 166 131.5 L 163.5 134 L 163 133.5 L 165.5 131 Z " /><path fill="rgb(240,226,225)" stroke="rgb(240,226,225)" stroke-width="0" opacity="1" d="M 77.5 135 L 85 142.5 L 84.5 143 L 77 135.5 L 77.5 135 Z " /><path fill="rgb(240,226,225)" stroke="rgb(240,226,225)" stroke-width="0" opacity="1" d="M 162.5 135 L 163 135.5 L 155.5 143 L 155 142.5 L 162.5 135 Z " /><path fill="rgb(240,226,225)" stroke="rgb(240,226,225)" stroke-width="0" opacity="1" d="M 86.5 143 L 89 145.5 L 88.5 146 L 86 143.5 L 86.5 143 Z " /><path fill="rgb(240,226,225)" stroke="rgb(240,226,225)" stroke-width="0" opacity="1" d="M 153.5 143 L 154 143.5 L 151.5 146 L 151 145.5 L 153.5 143 Z " /><path fill="rgb(240,226,225)" stroke="rgb(240,226,225)" stroke-width="0" opacity="1" d="M 90.5 146 L 90.5 147 L 90.5 146 Z " /><path fill="rgb(240,226,225)" stroke="rgb(240,226,225)" stroke-width="0" opacity="1" d="M 149.5 146 L 149.5 147 L 149.5 146 Z " /><path fill="rgb(240,226,225)" stroke="rgb(240,226,225)" stroke-width="0" opacity="1" d="M 92.5 147 Q 95 148 93.5 149 Q 91 148 92.5 147 Z " /><path fill="rgb(240,226,225)" stroke="rgb(240,226,225)" stroke-width="0" opacity="1" d="M 146.5 148 L 146.5 149 L 146.5 148 Z " /><path fill="rgb(240,226,225)" stroke="rgb(240,226,225)" stroke-width="0" opacity="1" d="M 95.5 149 L 95.5 150 L 95.5 149 Z " /><path fill="rgb(240,226,225)" stroke="rgb(240,226,225)" stroke-width="0" opacity="1" d="M 144.5 149 L 144.5 150 L 144.5 149 Z " /><path fill="rgb(240,226,225)" stroke="rgb(240,226,225)" stroke-width="0" opacity="1" d="M 58.5 150 L 58.5 151 L 58.5 150 Z " /><path fill="rgb(240,226,225)" stroke="rgb(240,226,225)" stroke-width="0" opacity="1" d="M 181.5 150 L 181.5 151 L 181.5 150 Z " /><path fill="rgb(240,226,225)" stroke="rgb(240,226,225)" stroke-width="0" opacity="1" d="M 55.5 153 L 55.5 154 L 55.5 153 Z " /><path fill="rgb(240,226,225)" stroke="rgb(240,226,225)" stroke-width="0" opacity="1" d="M 184.5 153 L 184.5 154 L 184.5 153 Z " /><path fill="rgb(240,226,225)" stroke="rgb(240,226,225)" stroke-width="0" opacity="1" d="M 55.5 172 L 55.5 173 L 55.5 172 Z " /><path fill="rgb(240,226,225)" stroke="rgb(240,226,225)" stroke-width="0" opacity="1" d="M 184.5 172 L 184.5 173 L 184.5 172 Z " /><path fill="rgb(240,226,225)" stroke="rgb(240,226,225)" stroke-width="0" opacity="1" d="M 58.5 175 L 58.5 176 L 58.5 175 Z " /><path fill="rgb(240,226,225)" stroke="rgb(240,226,225)" stroke-width="0" opacity="1" d="M 181.5 175 L 181.5 176 L 181.5 175 Z " /><path fill="rgb(240,226,225)" stroke="rgb(240,226,225)" stroke-width="0" opacity="1" d="M 86.5 180 L 92 180.5 L 86.5 181 L 86.5 180 Z " /><path fill="rgb(240,226,225)" stroke="rgb(240,226,225)" stroke-width="0" opacity="1" d="M 83.5 181 L 83.5 182 L 83.5 181 Z " /><path fill="rgb(240,226,225)" stroke="rgb(240,226,225)" stroke-width="0" opacity="1" d="M 95.5 181 L 95.5 182 L 95.5 181 Z " /><path fill="rgb(240,226,225)" stroke="rgb(240,226,225)" stroke-width="0" opacity="1" d="M 100.5 181 L 101 199.5 L 100 199.5 L 100.5 181 Z " /><path fill="rgb(240,226,225)" stroke="rgb(240,226,225)" stroke-width="0" opacity="1" d="M 114.5 181 L 115 183.5 L 114 183.5 L 114.5 181 Z " /><path fill="rgb(240,226,225)" stroke="rgb(240,226,225)" stroke-width="0" opacity="1" d="M 118.5 181 L 119 199.5 L 118 199.5 L 118.5 181 Z " /><path fill="rgb(240,226,225)" stroke="rgb(240,226,225)" stroke-width="0" opacity="1" d="M 129.5 181 L 130 181.5 L 124.5 187 L 124 186.5 L 129.5 181 Z " /><path fill="rgb(240,226,225)" stroke="rgb(240,226,225)" stroke-width="0" opacity="1" d="M 143.5 181 L 143.5 182 L 143.5 181 Z " /><path fill="rgb(240,226,225)" stroke="rgb(240,226,225)" stroke-width="0" opacity="1" d="M 149.5 181 L 149.5 182 L 149.5 181 Z " /><path fill="rgb(240,226,225)" stroke="rgb(240,226,225)" stroke-width="0" opacity="1" d="M 156.5 181 Q 158 182 155.5 183 Q 154 182 156.5 181 Z " /><path fill="rgb(240,226,225)" stroke="rgb(240,226,225)" stroke-width="0" opacity="1" d="M 161.5 182 L 161.5 183 L 161.5 182 Z " /><path fill="rgb(240,226,225)" stroke="rgb(240,226,225)" stroke-width="0" opacity="1" d="M 80.5 183 L 80.5 184 L 80.5 183 Z " /><path fill="rgb(240,226,225)" stroke="rgb(240,226,225)" stroke-width="0" opacity="1" d="M 150.5 183 Q 153 184 151.5 185 Q 149 184 150.5 183 Z " /><path fill="rgb(240,226,225)" stroke="rgb(240,226,225)" stroke-width="0" opacity="1" d="M 88.5 184 L 91 184.5 L 88.5 185 L 88.5 184 Z " /><path fill="rgb(240,226,225)" stroke="rgb(240,226,225)" stroke-width="0" opacity="1" d="M 145.5 184 L 145.5 185 L 145.5 184 Z " /><path fill="rgb(240,226,225)" stroke="rgb(240,226,225)" stroke-width="0" opacity="1" d="M 79.5 185 L 79.5 186 L 79.5 185 Z " /><path fill="rgb(240,226,225)" stroke="rgb(240,226,225)" stroke-width="0" opacity="1" d="M 94.5 185 L 94.5 186 L 94.5 185 Z " /><path fill="rgb(240,226,225)" stroke="rgb(240,226,225)" stroke-width="0" opacity="1" d="M 153.5 185 Q 155 186 152.5 187 Q 151 186 153.5 185 Z " /><path fill="rgb(240,226,225)" stroke="rgb(240,226,225)" stroke-width="0" opacity="1" d="M 159.5 185 Q 161 186 158.5 187 Q 157 186 159.5 185 Z " /><path fill="rgb(240,226,225)" stroke="rgb(240,226,225)" stroke-width="0" opacity="1" d="M 78.5 187 L 79 188.5 L 78 188.5 L 78.5 187 Z " /><path fill="rgb(240,226,225)" stroke="rgb(240,226,225)" stroke-width="0" opacity="1" d="M 84.5 187 L 84.5 188 L 84.5 187 Z " /><path fill="rgb(240,226,225)" stroke="rgb(240,226,225)" stroke-width="0" opacity="1" d="M 147.5 187 Q 150 188 148.5 189 Q 146 188 147.5 187 Z " /><path fill="rgb(240,226,225)" stroke="rgb(240,226,225)" stroke-width="0" opacity="1" d="M 157.5 188 Q 159 189 156.5 190 Q 155 189 157.5 188 Z " /><path fill="rgb(240,226,225)" stroke="rgb(240,226,225)" stroke-width="0" opacity="1" d="M 96.5 189 L 96.5 190 L 96.5 189 Z " /><path fill="rgb(240,226,225)" stroke="rgb(240,226,225)" stroke-width="0" opacity="1" d="M 135.5 190 L 144 190.5 L 135.5 191 L 135.5 190 Z " /><path fill="rgb(240,226,225)" stroke="rgb(240,226,225)" stroke-width="0" opacity="1" d="M 149.5 190 L 149.5 191 L 149.5 190 Z " /><path fill="rgb(240,226,225)" stroke="rgb(240,226,225)" stroke-width="0" opacity="1" d="M 157.5 192 L 157.5 193 L 157.5 192 Z " /><path fill="rgb(240,226,225)" stroke="rgb(240,226,225)" stroke-width="0" opacity="1" d="M 78.5 193 L 78.5 194 L 78.5 193 Z " /><path fill="rgb(240,226,225)" stroke="rgb(240,226,225)" stroke-width="0" opacity="1" d="M 147.5 193 Q 149 194 146.5 195 Q 145 194 147.5 193 Z " /><path fill="rgb(240,226,225)" stroke="rgb(240,226,225)" stroke-width="0" opacity="1" d="M 135.5 194 L 144 194.5 L 135.5 195 L 135.5 194 Z " /><path fill="rgb(240,226,225)" stroke="rgb(240,226,225)" stroke-width="0" opacity="1" d="M 152.5 194 L 152.5 195 L 152.5 194 Z " /><path fill="rgb(240,226,225)" stroke="rgb(240,226,225)" stroke-width="0" opacity="1" d="M 159.5 195 Q 162 196 160.5 197 Q 158 196 159.5 195 Z " /><path fill="rgb(240,226,225)" stroke="rgb(240,226,225)" stroke-width="0" opacity="1" d="M 88.5 196 L 91 196.5 L 88.5 197 L 88.5 196 Z " /><path fill="rgb(240,226,225)" stroke="rgb(240,226,225)" stroke-width="0" opacity="1" d="M 114.5 196 L 115 199.5 L 114 199.5 L 114.5 196 Z " /><path fill="rgb(240,226,225)" stroke="rgb(240,226,225)" stroke-width="0" opacity="1" d="M 145.5 196 Q 147 197 144.5 198 Q 143 197 145.5 196 Z " /><path fill="rgb(240,226,225)" stroke="rgb(240,226,225)" stroke-width="0" opacity="1" d="M 154.5 196 L 154.5 197 L 154.5 196 Z " /><path fill="rgb(240,226,225)" stroke="rgb(240,226,225)" stroke-width="0" opacity="1" d="M 80.5 197 Q 83 198 81.5 199 Q 79 198 80.5 197 Z " /><path fill="rgb(240,226,225)" stroke="rgb(240,226,225)" stroke-width="0" opacity="1" d="M 150.5 197 L 150.5 198 L 150.5 197 Z " /><path fill="rgb(240,226,225)" stroke="rgb(240,226,225)" stroke-width="0" opacity="1" d="M 161.5 198 Q 164 199 162.5 200 Q 160 199 161.5 198 Z " /><path fill="rgb(240,226,225)" stroke="rgb(240,226,225)" stroke-width="0" opacity="1" d="M 83.5 199 L 83.5 200 L 83.5 199 Z " /><path fill="rgb(240,226,225)" stroke="rgb(240,226,225)" stroke-width="0" opacity="1" d="M 95.5 199 L 95.5 200 L 95.5 199 Z " /><path fill="rgb(240,226,225)" stroke="rgb(240,226,225)" stroke-width="0" opacity="1" d="M 143.5 199 L 143.5 200 L 143.5 199 Z " /><path fill="rgb(240,226,225)" stroke="rgb(240,226,225)" stroke-width="0" opacity="1" d="M 156.5 199 L 156.5 200 L 156.5 199 Z " /><path fill="rgb(240,226,225)" stroke="rgb(240,226,225)" stroke-width="0" opacity="1" d="M 86.5 200 L 92 200.5 L 86.5 201 L 86.5 200 Z " /><path fill="rgb(255,255,255)" stroke="rgb(255,255,255)" stroke-width="0" opacity="1" d="M 0 0 L 240 0 L 240 240 L 0 240 L 0 0 Z M 111 45 L 110 46 L 103 47 L 100 49 L 98 49 L 85 57 L 77 65 L 71 74 L 67 83 L 66 90 L 65 91 L 65 110 L 67 115 L 67 118 L 71 127 L 77 136 Q 84 144 95 150 L 59 150 L 55 154 L 55 173 L 59 176 L 182 176 L 185 173 L 185 154 L 182 150 L 145 150 L 156 143 L 163 136 L 169 127 L 173 118 L 174 111 L 175 110 L 175 91 L 173 86 L 173 83 L 169 74 L 163 65 L 152 54 L 138 47 L 131 46 L 130 45 L 111 45 Z M 87 180 L 80 183 L 78 188 L 78 194 L 80 198 L 87 201 L 92 201 Q 92 199 96 200 L 97 199 L 97 189 L 89 189 L 89 193 Q 94 192 92 196 L 87 196 L 84 194 Q 83 187 87 185 L 94 185 L 95 186 L 96 186 L 96 181 Q 93 182 92 180 L 87 180 Z M 100 181 L 100 200 L 115 200 L 115 196 L 106 196 L 106 192 L 114 192 L 114 188 L 106 188 L 106 185 L 114 185 L 115 184 Q 115 181 115 181 L 100 181 Z M 118 181 L 118 200 L 119 200 L 124 200 L 125 194 L 131 200 L 137 200 L 137 200 L 128 191 L 136 182 L 130 181 L 125 186 L 124 186 L 124 181 L 118 181 Z M 144 181 L 143 182 L 149 190 L 149 192 L 143 200 L 149 200 L 151 197 L 154 195 L 156 200 L 163 200 L 156 191 L 162 183 L 162 181 L 157 181 L 153 186 L 150 183 L 150 181 L 144 181 Z M 135 190 L 135 195 L 144 195 L 144 190 L 135 190 Z " /><path fill="rgb(231,76,60)" stroke="rgb(231,76,60)" stroke-width="0" opacity="1" d="M 114.5 45 L 125.5 45 L 126.5 46 L 131.5 46 L 132.5 47 L 135.5 47 L 141.5 49 Q 154.51 54.99 163 65.5 L 169 74.5 L 173 84.5 L 174 93.5 L 175 94.5 L 175 105.5 L 174 106.5 L 173 115.5 L 169 125.5 L 163 134.5 L 154.5 143 L 143.5 150 L 96.5 150 L 85.5 143 L 77 134.5 L 71 125.5 L 67 115.5 L 66 106.5 L 65 105.5 L 65 94.5 L 66 93.5 L 67 84.5 L 71 74.5 L 77 65.5 L 85.5 57 L 98.5 49 L 104.5 47 L 107.5 47 L 108.5 46 L 113.5 46 L 114.5 45 Z " /><path fill="rgb(47,47,49)" stroke="rgb(47,47,49)" stroke-width="0" opacity="1" d="M 85.5 181 Q 93 180 96 182 L 95.5 186 Q 93.5 183 87.5 184 L 84 186.5 L 83 191.5 L 85.5 196 Q 87.82 197.83 92 197 L 92 193 Q 87.5 194.5 89 190 L 96 190 L 96 199 Q 92.69 201.13 84.5 200 L 80 196.5 Q 77.67 193.33 79 186.5 L 81.5 183 L 85.5 181 Z " /><path fill="rgb(47,47,49)" stroke="rgb(47,47,49)" stroke-width="0" opacity="1" d="M 101 181 L 113.5 181 Q 114.5 181.12 114 185 L 106 185 L 106 188 L 113 188 L 113 192 L 106 192 L 106 197 L 114 197 L 114 200 L 101 200 L 101 181 Z " /><path fill="rgb(47,47,49)" stroke="rgb(47,47,49)" stroke-width="0" opacity="1" d="M 119 181 L 123 181 L 123 187.5 L 123.5 188 L 130.5 181 L 136 181.5 L 127 189.5 L 136 199.5 L 131.5 200 L 124.5 193 L 123 193 L 123 200 L 119 200 L 119 181 Z " /><path fill="rgb(47,47,49)" stroke="rgb(47,47,49)" stroke-width="0" opacity="1" d="M 144.5 181 L 149 181 L 149 182.5 L 152.5 187 L 157.5 181 L 162 181.5 L 156 189.5 L 156 191.5 L 162 199.5 L 157.5 200 L 154 195.5 L 154 194 L 151 195.5 L 149 200 L 144 199.5 L 150 190.5 L 145 183.5 L 144.5 181 Z " /><path fill="rgb(47,47,49)" stroke="rgb(47,47,49)" stroke-width="0" opacity="1" d="M 136 191 L 143 191 L 143 194 L 136 194 L 136 191 Z " /><path fill="rgb(43,128,184)" stroke="rgb(43,128,184)" stroke-width="0" opacity="1" d="M 59.5 150 L 61 150.5 L 59.5 151 L 59.5 150 Z " /><path fill="rgb(43,128,184)" stroke="rgb(43,128,184)" stroke-width="0" opacity="1" d="M 179.5 150 L 181 150.5 L 179.5 151 L 179.5 150 Z " /><path fill="rgb(43,128,184)" stroke="rgb(43,128,184)" stroke-width="0" opacity="1" d="M 57.5 151 Q 59 152 56.5 153 Q 55 152 57.5 151 Z " /><path fill="rgb(43,128,184)" stroke="rgb(43,128,184)" stroke-width="0" opacity="1" d="M 182.5 151 Q 185 152 183.5 153 Q 181 152 182.5 151 Z " /><path fill="rgb(43,128,184)" stroke="rgb(43,128,184)" stroke-width="0" opacity="1" d="M 55.5 154 L 56 155.5 L 55 155.5 L 55.5 154 Z " /><path fill="rgb(43,128,184)" stroke="rgb(43,128,184)" stroke-width="0" opacity="1" d="M 184.5 154 L 185 155.5 L 184 155.5 L 184.5 154 Z " /><path fill="rgb(43,128,184)" stroke="rgb(43,128,184)" stroke-width="0" opacity="1" d="M 55.5 170 L 56 171.5 L 55 171.5 L 55.5 170 Z " /><path fill="rgb(43,128,184)" stroke="rgb(43,128,184)" stroke-width="0" opacity="1" d="M 184.5 170 L 185 171.5 L 184 171.5 L 184.5 170 Z " /><path fill="rgb(43,128,184)" stroke="rgb(43,128,184)" stroke-width="0" opacity="1" d="M 56.5 173 Q 59 174 57.5 175 Q 55 174 56.5 173 Z " /><path fill="rgb(43,128,184)" stroke="rgb(43,128,184)" stroke-width="0" opacity="1" d="M 183.5 173 Q 185 174 182.5 175 Q 181 174 183.5 173 Z " /><path fill="rgb(43,128,184)" stroke="rgb(43,128,184)" stroke-width="0" opacity="1" d="M 59.5 175 L 61 175.5 L 59.5 176 L 59.5 175 Z " /><path fill="rgb(43,128,184)" stroke="rgb(43,128,184)" stroke-width="0" opacity="1" d="M 179.5 175 L 181 175.5 L 179.5 176 L 179.5 175 Z " /><path fill="rgb(43,128,184)" stroke="rgb(43,128,184)" stroke-width="0" opacity="1" d="M 84.5 181 L 84.5 182 L 84.5 181 Z " /><path fill="rgb(43,128,184)" stroke="rgb(43,128,184)" stroke-width="0" opacity="1" d="M 94.5 181 L 94.5 182 L 94.5 181 Z " /><path fill="rgb(43,128,184)" stroke="rgb(43,128,184)" stroke-width="0" opacity="1" d="M 123.5 181 L 124 187.5 L 123 187.5 L 123.5 181 Z " /><path fill="rgb(43,128,184)" stroke="rgb(43,128,184)" stroke-width="0" opacity="1" d="M 82.5 182 L 82.5 183 L 82.5 182 Z " /><path fill="rgb(43,128,184)" stroke="rgb(43,128,184)" stroke-width="0" opacity="1" d="M 144.5 182 L 144.5 183 L 144.5 182 Z " /><path fill="rgb(43,128,184)" stroke="rgb(43,128,184)" stroke-width="0" opacity="1" d="M 149.5 182 L 149.5 183 L 149.5 182 Z " /><path fill="rgb(43,128,184)" stroke="rgb(43,128,184)" stroke-width="0" opacity="1" d="M 160.5 183 L 160.5 184 L 160.5 183 Z " /><path fill="rgb(43,128,184)" stroke="rgb(43,128,184)" stroke-width="0" opacity="1" d="M 87.5 184 L 87.5 185 L 87.5 184 Z " /><path fill="rgb(43,128,184)" stroke="rgb(43,128,184)" stroke-width="0" opacity="1" d="M 91.5 184 L 93 184.5 L 91.5 185 L 91.5 184 Z " /><path fill="rgb(43,128,184)" stroke="rgb(43,128,184)" stroke-width="0" opacity="1" d="M 154.5 184 L 154.5 185 L 154.5 184 Z " /><path fill="rgb(43,128,184)" stroke="rgb(43,128,184)" stroke-width="0" opacity="1" d="M 85.5 185 Q 87 186 84.5 187 Q 83 186 85.5 185 Z " /><path fill="rgb(43,128,184)" stroke="rgb(43,128,184)" stroke-width="0" opacity="1" d="M 146.5 185 L 146.5 186 L 146.5 185 Z " /><path fill="rgb(43,128,184)" stroke="rgb(43,128,184)" stroke-width="0" opacity="1" d="M 129.5 187 L 130 187.5 L 128 189.5 L 137 199.5 L 136.5 200 L 127 190.5 L 129.5 187 Z " /><path fill="rgb(43,128,184)" stroke="rgb(43,128,184)" stroke-width="0" opacity="1" d="M 113.5 188 L 114 191.5 L 113 191.5 L 113.5 188 Z " /><path fill="rgb(43,128,184)" stroke="rgb(43,128,184)" stroke-width="0" opacity="1" d="M 78.5 189 L 79 192.5 L 78 192.5 L 78.5 189 Z " /><path fill="rgb(43,128,184)" stroke="rgb(43,128,184)" stroke-width="0" opacity="1" d="M 83.5 189 L 84 191.5 L 83 191.5 L 83.5 189 Z " /><path fill="rgb(43,128,184)" stroke="rgb(43,128,184)" stroke-width="0" opacity="1" d="M 89.5 189 Q 95.5 187.5 97 190.5 L 96.5 199 L 96 190 L 89.5 190 L 89.5 189 Z " /><path fill="rgb(43,128,184)" stroke="rgb(43,128,184)" stroke-width="0" opacity="1" d="M 135.5 191 L 136 193.5 L 135 193.5 L 135.5 191 Z " /><path fill="rgb(43,128,184)" stroke="rgb(43,128,184)" stroke-width="0" opacity="1" d="M 143.5 191 L 144 193.5 L 143 193.5 L 143.5 191 Z " /><path fill="rgb(43,128,184)" stroke="rgb(43,128,184)" stroke-width="0" opacity="1" d="M 156.5 191 L 156.5 192 L 156.5 191 Z " /><path fill="rgb(43,128,184)" stroke="rgb(43,128,184)" stroke-width="0" opacity="1" d="M 148.5 192 L 148.5 193 L 148.5 192 Z " /><path fill="rgb(43,128,184)" stroke="rgb(43,128,184)" stroke-width="0" opacity="1" d="M 123 193 L 124.5 193 L 131 199.5 L 130.5 200 L 124.5 194 L 124 194.5 L 123.5 200 L 123 193 Z " /><path fill="rgb(43,128,184)" stroke="rgb(43,128,184)" stroke-width="0" opacity="1" d="M 84.5 194 Q 87 195 85.5 196 Q 83 195 84.5 194 Z " /><path fill="rgb(43,128,184)" stroke="rgb(43,128,184)" stroke-width="0" opacity="1" d="M 153.5 194 L 153.5 195 L 153.5 194 Z " /><path fill="rgb(43,128,184)" stroke="rgb(43,128,184)" stroke-width="0" opacity="1" d="M 158.5 194 L 158.5 195 L 158.5 194 Z " /><path fill="rgb(43,128,184)" stroke="rgb(43,128,184)" stroke-width="0" opacity="1" d="M 79.5 195 L 79.5 196 L 79.5 195 Z " /><path fill="rgb(43,128,184)" stroke="rgb(43,128,184)" stroke-width="0" opacity="1" d="M 146.5 195 L 146.5 196 L 146.5 195 Z " /><path fill="rgb(43,128,184)" stroke="rgb(43,128,184)" stroke-width="0" opacity="1" d="M 151.5 195 L 151.5 196 L 151.5 195 Z " /><path fill="rgb(43,128,184)" stroke="rgb(43,128,184)" stroke-width="0" opacity="1" d="M 87.5 196 L 87.5 197 L 87.5 196 Z " /><path fill="rgb(43,128,184)" stroke="rgb(43,128,184)" stroke-width="0" opacity="1" d="M 91.5 196 L 91.5 197 L 91.5 196 Z " /><path fill="rgb(43,128,184)" stroke="rgb(43,128,184)" stroke-width="0" opacity="1" d="M 106.5 196 L 114 196.5 L 106.5 197 L 106.5 196 Z " /><path fill="rgb(43,128,184)" stroke="rgb(43,128,184)" stroke-width="0" opacity="1" d="M 155.5 197 L 155.5 198 L 155.5 197 Z " /><path fill="rgb(43,128,184)" stroke="rgb(43,128,184)" stroke-width="0" opacity="1" d="M 160.5 197 L 160.5 198 L 160.5 197 Z " /><path fill="rgb(43,128,184)" stroke="rgb(43,128,184)" stroke-width="0" opacity="1" d="M 144.5 198 L 144.5 199 L 144.5 198 Z " /><path fill="rgb(43,128,184)" stroke="rgb(43,128,184)" stroke-width="0" opacity="1" d="M 149.5 198 L 149.5 199 L 149.5 198 Z " /><path fill="rgb(43,128,184)" stroke="rgb(43,128,184)" stroke-width="0" opacity="1" d="M 94.5 199 L 94.5 200 L 94.5 199 Z " /><path fill="rgb(41,128,185)" stroke="rgb(41,128,185)" stroke-width="0" opacity="1" d="M 61.5 150 L 178.5 150 L 181.5 151 L 184 153.5 L 185 156.5 L 185 169.5 L 184 172.5 L 181.5 175 L 178.5 176 L 61.5 176 L 58.5 175 L 56 172.5 L 55 169.5 L 55 156.5 L 56 153.5 L 58.5 151 L 61.5 150 Z " /></svg>